<svg xmlns="http://www.w3.org/2000/svg" width="512" height="512" viewBox="0 0 512 512" version="1.1"><path d="" stroke="none" fill="#5c5c54" fill-rule="evenodd"/><path d="M 279.216 22.958 C 255.432 29.388, 236.982 48.909, 232.488 72.400 C 230.589 82.322, 230.611 88.188, 232.581 97.792 C 235.459 111.820, 244.059 126.042, 254.640 134.268 C 257.882 136.789, 259.930 139.106, 259.706 140 C 259.498 140.825, 258.040 148.123, 256.464 156.219 C 253.804 169.890, 253.454 170.903, 251.550 170.453 C 250.422 170.187, 240.539 168.178, 229.587 165.988 C 218.634 163.798, 209.603 161.892, 209.516 161.753 C 209.430 161.614, 208.131 158.933, 206.629 155.796 C 201.770 145.647, 193.529 140.545, 182 140.548 C 175.807 140.550, 173.604 141.018, 169.362 143.235 C 155.499 150.480, 150.230 166.136, 157.058 179.800 C 162.262 190.215, 170.286 195.340, 181.500 195.412 C 189.809 195.465, 195.830 193.104, 201.279 187.654 L 204.879 184.054 226.472 188.392 C 238.348 190.779, 248.266 192.933, 248.513 193.180 C 248.760 193.427, 239.344 241.750, 227.589 300.564 C 206.254 407.314, 206.213 407.499, 203.858 407.167 C 198.492 406.409, 182.849 400.587, 175.692 396.684 C 151.884 383.700, 125.990 359.548, 109.557 335 C 104.588 327.578, 98 315.382, 98 313.607 C 98 313.273, 100.497 313, 103.550 313 C 109.676 313, 113.228 311.552, 117 307.514 C 119.149 305.214, 119.500 303.903, 119.500 298.169 L 119.500 291.500 107.106 273.500 C 84.606 240.823, 67.291 220.195, 56.119 212.757 C 53.403 210.949, 48.396 210.461, 46.289 211.800 C 44.424 212.985, 42 219.541, 42 223.398 C 42 225.303, 40.672 235.105, 39.048 245.181 C 31.224 293.738, 30.012 308.973, 33.500 314.895 C 37.215 321.202, 40.039 322.492, 50.304 322.569 L 59.458 322.639 60.311 326.569 C 62.170 335.138, 67.519 350.064, 72.571 360.779 C 87.536 392.519, 113.502 422.260, 150.500 450.035 C 164.864 460.819, 203.288 485.832, 209.527 488.461 C 219.073 492.482, 228.791 491.567, 273.799 482.405 C 340.307 468.866, 390.244 441.635, 419.416 403 C 422.115 399.425, 424.639 396.134, 425.025 395.687 C 425.410 395.240, 427.416 396.021, 429.481 397.423 C 439.047 403.914, 448.682 403.217, 454.481 395.613 C 458.069 390.909, 461.367 380.199, 470.991 342 C 475.356 324.675, 479.394 308.928, 479.964 307.007 C 481.514 301.781, 481.255 300.164, 478.416 297.325 C 476.132 295.041, 475.270 294.808, 470.986 295.315 C 459.604 296.663, 432.689 310.535, 398.500 332.673 C 383.754 342.221, 381.202 344.261, 379.250 348.052 C 374.625 357.039, 377.341 364.258, 387.358 369.598 L 393.169 372.697 387.835 377.380 C 357.649 403.880, 301.891 423.278, 267.479 419.251 C 262.147 418.627, 257.586 417.920, 257.345 417.678 C 256.967 417.300, 298.957 204.048, 299.581 203.177 C 299.821 202.843, 345.278 211.845, 345.471 212.264 C 345.530 212.394, 346.667 214.898, 347.997 217.829 C 350.631 223.633, 354.713 227.749, 361.278 231.221 C 367.197 234.351, 378.754 234.378, 384.616 231.275 C 390.898 227.950, 394.319 224.667, 397.397 219.011 C 407.375 200.680, 394.017 178.500, 373 178.500 C 365.402 178.500, 356.744 182.138, 352.587 187.079 L 350.083 190.055 327.405 185.557 C 314.932 183.084, 304.564 180.897, 304.364 180.698 C 303.877 180.210, 309.863 149.853, 310.777 148.173 C 311.175 147.444, 313.947 145.985, 316.937 144.932 C 331.189 139.913, 345.001 127.743, 351.751 114.258 C 369.541 78.715, 352.703 37.108, 315.383 24.388 C 304.603 20.714, 289.695 20.125, 279.216 22.958 M 286.718 59.437 C 277.443 62.746, 271.042 69.984, 268.891 79.595 C 264.793 97.910, 282.219 115.179, 300.639 111.056 C 314.057 108.053, 323.064 95.735, 321.685 82.272 C 319.953 65.370, 302.336 53.865, 286.718 59.437" stroke="none" fill="#545454" fill-rule="evenodd"/></svg>