<svg version="1.1" id="Layer_1" xmlns="http://www.w3.org/2000/svg" xmlns:xlink="http://www.w3.org/1999/xlink" x="0px" y="0px"
	 width="100%" viewBox="0 0 1100 416" enable-background="new 0 0 1100 416" xml:space="preserve">
<path fill="#FFFFFF" opacity="1.000000" stroke="none" 
	d="
M1.000000,401.000000 
	C1.000000,267.696106 1.000000,134.392242 1.000000,1.044179 
	C367.556244,1.044179 734.112488,1.044179 1101.000000,1.044179 
	C1101.000000,134.026688 1101.000000,267.053650 1100.536133,400.540497 
	C733.714844,401.000275 367.357422,401.000122 1.000000,401.000000 
M1040.419800,269.913361 
	C1052.594482,253.832108 1059.338501,235.926605 1060.400146,215.584961 
	C1063.227173,161.423203 1016.067322,119.929726 962.585449,129.379196 
	C920.172607,136.872940 893.411072,176.538208 893.094604,213.107803 
	C892.933167,231.766663 893.036255,250.427872 893.028442,269.088013 
	C893.014709,302.076813 892.979004,335.065643 893.018188,368.054382 
	C893.027954,376.232697 897.886841,380.909698 906.152771,380.997589 
	C908.984863,381.027710 911.817505,381.009003 914.649902,381.001251 
	C924.527344,380.974243 928.995544,376.554077 928.998901,366.752563 
	C929.008667,338.595276 928.999023,310.437958 929.011658,282.280670 
	C929.012329,280.719788 929.145935,279.158966 929.225037,277.439209 
	C933.420898,280.599213 937.080933,283.736664 941.113037,286.285614 
	C945.167969,288.848999 949.428528,291.246399 953.882935,292.992126 
	C980.350037,303.365051 1016.177002,299.747009 1040.419800,269.913361 
M523.921387,151.500000 
	C523.921387,192.479324 523.919495,233.458664 523.926880,274.437988 
	C523.927246,276.602600 523.855042,278.783112 524.079041,280.928833 
	C524.712463,286.995819 528.537964,291.474579 534.305298,293.124847 
	C545.669800,296.376648 554.475220,289.661499 554.513000,277.464386 
	C554.597229,250.311676 554.594482,223.158325 554.508301,196.005615 
	C554.480469,187.232376 556.495544,179.280441 562.122681,172.336243 
	C575.495728,155.833115 601.983521,150.509827 622.297791,160.245926 
	C634.616699,166.150070 642.865295,175.405609 645.563660,188.920898 
	C646.662781,194.426193 647.050598,200.149109 647.088501,205.777542 
	C647.249207,229.597794 647.125366,253.419815 647.171387,277.241058 
	C647.191284,287.536102 652.899597,293.730774 662.333374,293.922974 
	C671.421509,294.108154 677.878662,287.459503 677.908081,277.541779 
	C677.981689,252.721161 678.075623,227.899033 677.876892,203.079773 
	C677.749817,187.200256 674.468445,172.065399 665.749023,158.437363 
	C647.881653,130.511459 606.909241,119.398598 575.146423,134.272461 
	C568.052917,137.594208 561.576965,142.234604 554.539734,146.433136 
	C554.539734,131.763977 554.540100,116.983604 554.539612,102.203239 
	C554.539307,93.041191 554.638733,83.877678 554.505859,74.717545 
	C554.392212,66.888596 550.719971,61.788181 544.238892,59.933475 
	C533.082336,56.740772 524.011230,63.362228 523.959290,75.038177 
	C523.847351,100.191673 523.922729,125.346008 523.921387,151.500000 
M762.537659,293.043060 
	C791.755554,298.764801 816.288879,290.289154 837.008423,267.813568 
	C837.008423,272.206512 836.886353,275.794830 837.034424,279.371918 
	C837.320679,286.287231 841.075623,291.194855 847.353027,293.131592 
	C858.237183,296.489624 867.619934,289.352783 867.682861,277.378357 
	C867.800171,255.051819 867.962036,232.720947 867.667236,210.397675 
	C866.965942,157.296997 820.644409,119.702690 768.615356,129.784729 
	C730.959778,137.081512 705.198730,166.490082 702.514160,206.309082 
	C699.470398,251.456543 727.091492,285.122162 762.537659,293.043060 
M471.181244,75.260124 
	C459.191986,68.559494 446.170227,65.495384 432.614136,64.329483 
	C410.946136,62.465946 391.184753,67.018616 374.702026,81.998955 
	C360.956268,94.491776 354.929291,109.834740 359.238464,128.279221 
	C362.297180,141.371338 370.632904,151.489914 381.142883,158.984650 
	C394.763672,168.697678 409.262238,177.241470 423.746582,185.663162 
	C436.451080,193.049957 448.842255,200.648163 459.200012,211.273331 
	C474.205841,226.666519 468.959656,251.027084 454.336823,261.886292 
	C435.381012,275.963348 402.415192,275.048706 384.262146,260.056641 
	C378.617310,255.394699 372.111969,251.017090 365.259277,248.759506 
	C355.866974,245.665268 347.301056,255.240005 350.964783,264.488373 
	C352.933777,269.458710 356.817627,274.260986 361.036987,277.642365 
	C375.663818,289.364319 392.664154,295.978271 411.325775,297.578613 
	C434.620422,299.576263 456.523254,295.741150 474.927582,279.904907 
	C498.445343,259.668701 504.165314,227.723526 488.381500,204.034393 
	C480.608826,192.368774 470.408813,183.080597 458.393860,175.894577 
	C443.700317,167.106522 428.660797,158.875519 414.212311,149.707932 
	C406.693115,144.936981 399.362579,139.384369 393.292511,132.921036 
	C382.692749,121.634583 384.842712,106.855179 397.629639,98.123917 
	C401.415253,95.539017 405.692719,93.289841 410.073547,92.029724 
	C426.700775,87.247055 442.303314,90.116676 456.844269,99.361717 
	C459.638000,101.137947 462.487305,102.937401 465.532776,104.184547 
	C472.292603,106.952728 479.818481,105.098679 483.177155,100.192574 
	C486.568756,95.238365 485.571411,87.661758 480.383545,82.415436 
	C477.844238,79.847481 474.664093,77.913177 471.181244,75.260124 
M233.000412,291.498993 
	C233.000229,249.355942 233.030380,207.212860 232.978745,165.069870 
	C232.965652,154.385330 225.077240,146.355270 214.927734,146.389511 
	C205.184143,146.422379 197.069214,154.225464 197.048325,164.199356 
	C196.949280,211.505966 196.945587,258.813019 197.053772,306.119598 
	C197.076324,315.978821 205.452835,323.925751 215.049606,323.842041 
	C224.790512,323.757050 232.722855,315.911163 232.977859,305.990112 
	C233.093384,301.495575 232.999374,296.995636 233.000412,291.498993 
M145.000000,240.500000 
	C145.000000,272.322357 144.985382,304.144745 145.007706,335.967102 
	C145.015854,347.587494 152.398758,355.432556 163.163849,355.373291 
	C173.676727,355.315430 180.984100,347.498657 180.990555,336.155151 
	C181.014282,294.502869 181.015778,252.850586 180.989258,211.198318 
	C180.982132,199.991074 173.467606,191.979950 163.082382,191.945206 
	C152.618210,191.910202 145.073456,199.827194 145.011169,211.009903 
	C144.958267,220.506332 145.000092,230.003281 145.000000,240.500000 
M129.000122,143.500000 
	C129.000122,120.682945 129.017822,97.865868 128.992752,75.048843 
	C128.979996,63.428005 121.586098,55.587826 110.816536,55.676613 
	C100.344406,55.762943 93.014801,63.635090 93.008316,74.934029 
	C92.986252,113.406525 92.989601,151.879044 93.006096,190.351547 
	C93.011086,201.981705 100.384003,210.036026 110.953636,210.055450 
	C121.543678,210.074921 128.968414,202.050034 128.992294,190.467148 
	C129.023880,175.144821 129.000107,159.822388 129.000122,143.500000 
M146.565643,167.628174 
	C151.283157,176.170746 159.311127,179.991653 167.727402,177.700089 
	C175.857285,175.486496 180.987915,168.248444 180.993530,158.835602 
	C181.012024,127.884315 181.016022,96.932991 180.992432,65.981720 
	C180.983673,54.496288 173.378464,46.332954 162.867050,46.409752 
	C152.380112,46.486366 145.012192,54.625153 145.005524,66.230232 
	C144.987839,97.015121 144.968872,127.800102 145.051697,158.584778 
	C145.059174,161.365433 145.798370,164.144119 146.565643,167.628174 
M77.000465,174.500000 
	C77.000267,154.691254 77.051460,134.882324 76.979225,115.073830 
	C76.940277,104.392021 69.099472,96.375404 58.949348,96.390564 
	C48.819183,96.405708 41.040955,104.433502 41.019497,115.158340 
	C40.962543,143.622955 40.955257,172.087860 41.024002,200.552414 
	C41.050236,211.412460 48.617538,219.060638 59.028156,219.063965 
	C69.319336,219.067245 76.896095,211.272461 76.986267,200.468933 
	C77.055740,192.146500 77.000336,183.823013 77.000465,174.500000 
M248.999390,225.500000 
	C248.999573,245.974808 248.949966,266.449799 249.020432,286.924377 
	C249.057175,297.603119 256.898895,305.624329 267.047180,305.613129 
	C277.170715,305.601959 284.959473,297.564636 284.980774,286.846863 
	C285.037323,258.381989 285.044617,229.916855 284.976349,201.452057 
	C284.950317,190.591095 277.385010,182.940948 266.975922,182.936768 
	C256.683807,182.932617 249.108231,190.727280 249.012833,201.528397 
	C248.945190,209.185028 248.999496,216.842758 248.999390,225.500000 
M125.054672,230.533203 
	C118.522400,223.889725 111.678024,222.067657 104.350616,225.021515 
	C96.798790,228.065811 93.005928,234.289932 93.002419,243.730392 
	C92.993126,268.701752 92.961708,293.673218 93.017128,318.644470 
	C93.041191,329.489502 100.546394,337.168762 110.960526,337.237762 
	C121.261581,337.306030 128.959686,329.498688 128.982880,318.732178 
	C129.037369,293.427979 129.148041,268.121796 128.845612,242.821106 
	C128.798752,238.899963 126.691399,235.003433 125.054672,230.533203 
M217.081604,60.147236 
	C204.545578,59.924015 197.035004,67.201431 197.003510,79.661400 
	C196.974884,90.990074 196.966690,102.318985 197.006332,113.647591 
	C197.045166,124.743011 204.797974,133.000046 214.988754,132.887268 
	C225.471527,132.771286 232.944412,124.836220 232.991974,113.663948 
	C233.039490,102.502007 233.013260,91.339691 232.999573,80.177559 
	C232.986023,69.129128 228.561493,63.305290 217.081604,60.147236 
M284.541779,110.412392 
	C281.207336,100.408615 273.543152,95.244003 264.263641,96.747658 
	C254.795410,98.281891 249.029724,105.469032 249.005600,115.874657 
	C248.977783,127.862045 248.829239,139.853180 249.070114,151.835907 
	C249.267502,161.655884 257.074677,168.998093 266.814575,169.070740 
	C276.528137,169.143219 284.712952,161.877151 284.902344,152.184738 
	C285.168915,138.542923 284.843109,124.889534 284.541779,110.412392 
M77.001762,285.329376 
	C77.001640,274.180023 77.044334,263.030457 76.989395,251.881363 
	C76.934174,240.676270 69.484955,232.914169 58.918003,232.929459 
	C48.488789,232.944550 41.046230,240.860626 41.007027,252.069656 
	C40.967449,263.385254 40.975151,274.701202 41.004753,286.016876 
	C41.034801,297.504333 48.614742,305.660004 59.130184,305.584900 
	C69.431190,305.511353 76.718475,297.636902 77.001762,285.329376 
z"/>
<path fill="#000000" opacity="1.000000" stroke="none" 
	d="
M1.000000,401.464844 
	C367.357422,401.000122 733.714844,401.000275 1100.536133,401.000183 
	C1101.000000,406.331299 1101.000000,411.662628 1101.000000,416.962128 
	C734.333313,416.962128 367.666656,416.962128 1.000000,416.962128 
	C1.000000,411.926056 1.000000,406.927887 1.000000,401.464844 
z"/>
<path fill="#2B3B53" opacity="1.000000" stroke="none" 
	d="
M1040.208008,270.199921 
	C1016.177002,299.747009 980.350037,303.365051 953.882935,292.992126 
	C949.428528,291.246399 945.167969,288.848999 941.113037,286.285614 
	C937.080933,283.736664 933.420898,280.599213 929.225037,277.439209 
	C929.145935,279.158966 929.012329,280.719788 929.011658,282.280670 
	C928.999023,310.437958 929.008667,338.595276 928.998901,366.752563 
	C928.995544,376.554077 924.527344,380.974243 914.649902,381.001251 
	C911.817505,381.009003 908.984863,381.027710 906.152771,380.997589 
	C897.886841,380.909698 893.027954,376.232697 893.018188,368.054382 
	C892.979004,335.065643 893.014709,302.076813 893.028442,269.088013 
	C893.036255,250.427872 892.933167,231.766663 893.094604,213.107803 
	C893.411072,176.538208 920.172607,136.872940 962.585449,129.379196 
	C1016.067322,119.929726 1063.227173,161.423203 1060.400146,215.584961 
	C1059.338501,235.926605 1052.594482,253.832108 1040.208008,270.199921 
M1008.978577,170.474747 
	C1007.919800,169.672165 1006.889038,168.829071 1005.798096,168.072891 
	C976.302368,147.628189 935.204712,161.635315 926.763977,195.420792 
	C924.870483,202.999603 924.416382,211.318375 925.188660,219.109238 
	C927.242676,239.831085 937.515625,255.814407 957.121704,263.690247 
	C976.524109,271.484253 995.423523,269.252594 1011.861877,255.405060 
	C1036.038574,235.038788 1034.738770,192.510590 1008.978577,170.474747 
z"/>
<path fill="#2D3C54" opacity="1.000000" stroke="none" 
	d="
M523.921387,151.000000 
	C523.922729,125.346008 523.847351,100.191673 523.959290,75.038177 
	C524.011230,63.362228 533.082336,56.740772 544.238892,59.933475 
	C550.719971,61.788181 554.392212,66.888596 554.505859,74.717545 
	C554.638733,83.877678 554.539307,93.041191 554.539612,102.203239 
	C554.540100,116.983604 554.539734,131.763977 554.539734,146.433136 
	C561.576965,142.234604 568.052917,137.594208 575.146423,134.272461 
	C606.909241,119.398598 647.881653,130.511459 665.749023,158.437363 
	C674.468445,172.065399 677.749817,187.200256 677.876892,203.079773 
	C678.075623,227.899033 677.981689,252.721161 677.908081,277.541779 
	C677.878662,287.459503 671.421509,294.108154 662.333374,293.922974 
	C652.899597,293.730774 647.191284,287.536102 647.171387,277.241058 
	C647.125366,253.419815 647.249207,229.597794 647.088501,205.777542 
	C647.050598,200.149109 646.662781,194.426193 645.563660,188.920898 
	C642.865295,175.405609 634.616699,166.150070 622.297791,160.245926 
	C601.983521,150.509827 575.495728,155.833115 562.122681,172.336243 
	C556.495544,179.280441 554.480469,187.232376 554.508301,196.005615 
	C554.594482,223.158325 554.597229,250.311676 554.513000,277.464386 
	C554.475220,289.661499 545.669800,296.376648 534.305298,293.124847 
	C528.537964,291.474579 524.712463,286.995819 524.079041,280.928833 
	C523.855042,278.783112 523.927246,276.602600 523.926880,274.437988 
	C523.919495,233.458664 523.921387,192.479324 523.921387,151.000000 
z"/>
<path fill="#2C3C54" opacity="1.000000" stroke="none" 
	d="
M762.119873,292.981201 
	C727.091492,285.122162 699.470398,251.456543 702.514160,206.309082 
	C705.198730,166.490082 730.959778,137.081512 768.615356,129.784729 
	C820.644409,119.702690 866.965942,157.296997 867.667236,210.397675 
	C867.962036,232.720947 867.800171,255.051819 867.682861,277.378357 
	C867.619934,289.352783 858.237183,296.489624 847.353027,293.131592 
	C841.075623,291.194855 837.320679,286.287231 837.034424,279.371918 
	C836.886353,275.794830 837.008423,272.206512 837.008423,267.813568 
	C816.288879,290.289154 791.755554,298.764801 762.119873,292.981201 
M737.123840,185.759033 
	C732.602478,195.499390 731.441040,205.771698 731.903931,216.399750 
	C733.365784,249.972656 764.171814,273.876038 796.940308,266.521301 
	C816.702637,262.085754 829.188660,249.478012 835.356262,230.509506 
	C843.165588,206.492035 835.235779,179.298828 816.736206,165.690720 
	C789.686218,145.793106 753.838501,154.559387 737.123840,185.759033 
z"/>
<path fill="#2C3C54" opacity="1.000000" stroke="none" 
	d="
M471.477631,75.476105 
	C474.664093,77.913177 477.844238,79.847481 480.383545,82.415436 
	C485.571411,87.661758 486.568756,95.238365 483.177155,100.192574 
	C479.818481,105.098679 472.292603,106.952728 465.532776,104.184547 
	C462.487305,102.937401 459.638000,101.137947 456.844269,99.361717 
	C442.303314,90.116676 426.700775,87.247055 410.073547,92.029724 
	C405.692719,93.289841 401.415253,95.539017 397.629639,98.123917 
	C384.842712,106.855179 382.692749,121.634583 393.292511,132.921036 
	C399.362579,139.384369 406.693115,144.936981 414.212311,149.707932 
	C428.660797,158.875519 443.700317,167.106522 458.393860,175.894577 
	C470.408813,183.080597 480.608826,192.368774 488.381500,204.034393 
	C504.165314,227.723526 498.445343,259.668701 474.927582,279.904907 
	C456.523254,295.741150 434.620422,299.576263 411.325775,297.578613 
	C392.664154,295.978271 375.663818,289.364319 361.036987,277.642365 
	C356.817627,274.260986 352.933777,269.458710 350.964783,264.488373 
	C347.301056,255.240005 355.866974,245.665268 365.259277,248.759506 
	C372.111969,251.017090 378.617310,255.394699 384.262146,260.056641 
	C402.415192,275.048706 435.381012,275.963348 454.336823,261.886292 
	C468.959656,251.027084 474.205841,226.666519 459.200012,211.273331 
	C448.842255,200.648163 436.451080,193.049957 423.746582,185.663162 
	C409.262238,177.241470 394.763672,168.697678 381.142883,158.984650 
	C370.632904,151.489914 362.297180,141.371338 359.238464,128.279221 
	C354.929291,109.834740 360.956268,94.491776 374.702026,81.998955 
	C391.184753,67.018616 410.946136,62.465946 432.614136,64.329483 
	C446.170227,65.495384 459.191986,68.559494 471.477631,75.476105 
z"/>
<path fill="#6966B3" opacity="1.000000" stroke="none" 
	d="
M233.000412,291.998596 
	C232.999374,296.995636 233.093384,301.495575 232.977859,305.990112 
	C232.722855,315.911163 224.790512,323.757050 215.049606,323.842041 
	C205.452835,323.925751 197.076324,315.978821 197.053772,306.119598 
	C196.945587,258.813019 196.949280,211.505966 197.048325,164.199356 
	C197.069214,154.225464 205.184143,146.422379 214.927734,146.389511 
	C225.077240,146.355270 232.965652,154.385330 232.978745,165.069870 
	C233.030380,207.212860 233.000229,249.355942 233.000412,291.998596 
z"/>
<path fill="#5171C4" opacity="1.000000" stroke="none" 
	d="
M145.000000,240.000000 
	C145.000092,230.003281 144.958267,220.506332 145.011169,211.009903 
	C145.073456,199.827194 152.618210,191.910202 163.082382,191.945206 
	C173.467606,191.979950 180.982132,199.991074 180.989258,211.198318 
	C181.015778,252.850586 181.014282,294.502869 180.990555,336.155151 
	C180.984100,347.498657 173.676727,355.315430 163.163849,355.373291 
	C152.398758,355.432556 145.015854,347.587494 145.007706,335.967102 
	C144.985382,304.144745 145.000000,272.322357 145.000000,240.000000 
z"/>
<path fill="#B34582" opacity="1.000000" stroke="none" 
	d="
M129.000122,144.000000 
	C129.000107,159.822388 129.023880,175.144821 128.992294,190.467148 
	C128.968414,202.050034 121.543678,210.074921 110.953636,210.055450 
	C100.384003,210.036026 93.011086,201.981705 93.006096,190.351547 
	C92.989601,151.879044 92.986252,113.406525 93.008316,74.934029 
	C93.014801,63.635090 100.344406,55.762943 110.816536,55.676613 
	C121.586098,55.587826 128.979996,63.428005 128.992752,75.048843 
	C129.017822,97.865868 129.000122,120.682945 129.000122,144.000000 
z"/>
<path fill="#C73D76" opacity="1.000000" stroke="none" 
	d="
M146.381699,167.275940 
	C145.798370,164.144119 145.059174,161.365433 145.051697,158.584778 
	C144.968872,127.800102 144.987839,97.015121 145.005524,66.230232 
	C145.012192,54.625153 152.380112,46.486366 162.867050,46.409752 
	C173.378464,46.332954 180.983673,54.496288 180.992432,65.981720 
	C181.016022,96.932991 181.012024,127.884315 180.993530,158.835602 
	C180.987915,168.248444 175.857285,175.486496 167.727402,177.700089 
	C159.311127,179.991653 151.283157,176.170746 146.381699,167.275940 
z"/>
<path fill="#9A5093" opacity="1.000000" stroke="none" 
	d="
M77.000465,175.000000 
	C77.000336,183.823013 77.055740,192.146500 76.986267,200.468933 
	C76.896095,211.272461 69.319336,219.067245 59.028156,219.063965 
	C48.617538,219.060638 41.050236,211.412460 41.024002,200.552414 
	C40.955257,172.087860 40.962543,143.622955 41.019497,115.158340 
	C41.040955,104.433502 48.819183,96.405708 58.949348,96.390564 
	C69.099472,96.375404 76.940277,104.392021 76.979225,115.073830 
	C77.051460,134.882324 77.000267,154.691254 77.000465,175.000000 
z"/>
<path fill="#7363AD" opacity="1.000000" stroke="none" 
	d="
M248.999390,225.000000 
	C248.999496,216.842758 248.945190,209.185028 249.012833,201.528397 
	C249.108231,190.727280 256.683807,182.932617 266.975922,182.936768 
	C277.385010,182.940948 284.950317,190.591095 284.976349,201.452057 
	C285.044617,229.916855 285.037323,258.381989 284.980774,286.846863 
	C284.959473,297.564636 277.170715,305.601959 267.047180,305.613129 
	C256.898895,305.624329 249.057175,297.603119 249.020432,286.924377 
	C248.949966,266.449799 248.999573,245.974808 248.999390,225.000000 
z"/>
<path fill="#4378CD" opacity="1.000000" stroke="none" 
	d="
M125.295792,230.814362 
	C126.691399,235.003433 128.798752,238.899963 128.845612,242.821106 
	C129.148041,268.121796 129.037369,293.427979 128.982880,318.732178 
	C128.959686,329.498688 121.261581,337.306030 110.960526,337.237762 
	C100.546394,337.168762 93.041191,329.489502 93.017128,318.644470 
	C92.961708,293.673218 92.993126,268.701752 93.002419,243.730392 
	C93.005928,234.289932 96.798790,228.065811 104.350616,225.021515 
	C111.678024,222.067657 118.522400,223.889725 125.295792,230.814362 
z"/>
<path fill="#D5366D" opacity="1.000000" stroke="none" 
	d="
M217.493286,60.201797 
	C228.561493,63.305290 232.986023,69.129128 232.999573,80.177559 
	C233.013260,91.339691 233.039490,102.502007 232.991974,113.663948 
	C232.944412,124.836220 225.471527,132.771286 214.988754,132.887268 
	C204.797974,133.000046 197.045166,124.743011 197.006332,113.647591 
	C196.966690,102.318985 196.974884,90.990074 197.003510,79.661400 
	C197.035004,67.201431 204.545578,59.924015 217.493286,60.201797 
z"/>
<path fill="#F2295A" opacity="1.000000" stroke="none" 
	d="
M284.656189,110.826744 
	C284.843109,124.889534 285.168915,138.542923 284.902344,152.184738 
	C284.712952,161.877151 276.528137,169.143219 266.814575,169.070740 
	C257.074677,168.998093 249.267502,161.655884 249.070114,151.835907 
	C248.829239,139.853180 248.977783,127.862045 249.005600,115.874657 
	C249.029724,105.469032 254.795410,98.281891 264.263641,96.747658 
	C273.543152,95.244003 281.207336,100.408615 284.656189,110.826744 
z"/>
<path fill="#2785DF" opacity="1.000000" stroke="none" 
	d="
M77.001724,285.801392 
	C76.718475,297.636902 69.431190,305.511353 59.130184,305.584900 
	C48.614742,305.660004 41.034801,297.504333 41.004753,286.016876 
	C40.975151,274.701202 40.967449,263.385254 41.007027,252.069656 
	C41.046230,240.860626 48.488789,232.944550 58.918003,232.929459 
	C69.484955,232.914169 76.934174,240.676270 76.989395,251.881363 
	C77.044334,263.030457 77.001640,274.180023 77.001724,285.801392 
z"/>
<path fill="#FEFEFE" opacity="1.000000" stroke="none" 
	d="
M1009.242371,170.716644 
	C1034.738770,192.510590 1036.038574,235.038788 1011.861877,255.405060 
	C995.423523,269.252594 976.524109,271.484253 957.121704,263.690247 
	C937.515625,255.814407 927.242676,239.831085 925.188660,219.109238 
	C924.416382,211.318375 924.870483,202.999603 926.763977,195.420792 
	C935.204712,161.635315 976.302368,147.628189 1005.798096,168.072891 
	C1006.889038,168.829071 1007.919800,169.672165 1009.242371,170.716644 
z"/>
<path fill="#FEFEFE" opacity="1.000000" stroke="none" 
	d="
M737.289062,185.418732 
	C753.838501,154.559387 789.686218,145.793106 816.736206,165.690720 
	C835.235779,179.298828 843.165588,206.492035 835.356262,230.509506 
	C829.188660,249.478012 816.702637,262.085754 796.940308,266.521301 
	C764.171814,273.876038 733.365784,249.972656 731.903931,216.399750 
	C731.441040,205.771698 732.602478,195.499390 737.289062,185.418732 
z"/>
</svg>