<svg xmlns="http://www.w3.org/2000/svg" width="396" height="400" viewBox="0 0 396 400" version="1.1"><path d="M 188.917 19.414 C 188.688 19.642, 186.025 19.951, 183 20.101 C 179.058 20.297, 177.130 20.888, 176.193 22.187 C 174.603 24.394, 171.689 24.535, 169.990 22.488 C 169.228 21.570, 168.295 21.315, 167.617 21.838 C 167.003 22.312, 163.688 23.279, 160.250 23.987 C 156.332 24.793, 154 25.773, 154 26.614 C 154 27.351, 152.930 28.655, 151.623 29.511 C 149.698 30.772, 148.756 30.846, 146.674 29.897 C 143.693 28.539, 139.549 29.973, 122 38.436 L 111.500 43.500 113.750 45.714 C 116.397 48.320, 116.594 50.263, 114.429 52.429 C 111.866 54.991, 108.130 54.389, 106.249 51.111 L 104.591 48.222 96.646 54.270 C 86.907 61.683, 74.927 72.870, 75.105 74.384 C 75.428 77.119, 74.871 78.104, 73.162 77.814 C 70.715 77.400, 62.389 87.366, 53.625 101.201 C 49.896 107.086, 46.789 112.261, 46.721 112.701 C 46.652 113.140, 45.153 116.464, 43.390 120.087 C 35.276 136.760, 28.685 161.053, 27.414 178.975 C 27.122 183.086, 26.713 186.620, 26.505 186.828 C 26.298 187.036, 27.320 188.232, 28.778 189.485 C 31.149 191.525, 31.302 192.041, 30.235 194.382 C 29.580 195.822, 28.452 197, 27.730 197 C 26.684 197, 26.581 198.858, 27.221 206.163 C 27.664 211.202, 28.520 215.922, 29.125 216.650 C 29.744 217.396, 29.887 218.744, 29.453 219.737 C 29.029 220.707, 28.744 221.807, 28.818 222.181 C 32.465 240.470, 37.415 257.029, 39.615 258.300 C 40.377 258.740, 41 260.250, 41 261.657 C 41 263.617, 41.383 264.067, 42.641 263.584 C 43.543 263.238, 45.343 263.650, 46.641 264.500 C 49.527 266.391, 49.748 270.379, 47.093 272.652 C 45.854 273.714, 45.512 274.672, 46.116 275.392 C 46.627 276.002, 49.298 280.306, 52.051 284.957 C 59.579 297.675, 66.052 305.799, 68.208 305.235 C 69.194 304.978, 70.037 305.157, 70.083 305.633 C 70.129 306.110, 70.283 307.564, 70.425 308.863 C 70.743 311.784, 85.524 326.410, 96 334.170 C 110.688 345.049, 125.756 353.400, 128.065 351.939 C 131.552 349.732, 137 352.302, 137 356.152 C 137 357.152, 139.897 358.570, 145.750 360.435 C 150.563 361.969, 155.175 363.472, 156 363.775 C 158.120 364.556, 158.030 364.534, 163 365.422 C 165.475 365.864, 168.008 366.635, 168.628 367.134 C 169.374 367.735, 169.926 367.392, 170.258 366.120 C 170.535 365.063, 171.704 363.693, 172.858 363.076 C 174.583 362.153, 175.326 362.326, 177.054 364.054 C 178.210 365.210, 178.911 366.789, 178.613 367.565 C 178.316 368.341, 178.393 368.889, 178.786 368.783 C 179.179 368.677, 183.272 368.922, 187.883 369.329 C 195.034 369.960, 196.541 369.821, 198.133 368.380 C 199.871 366.807, 200.126 366.804, 201.829 368.345 C 202.835 369.255, 205.041 370, 206.731 370 C 209.229 370, 209.995 369.453, 210.824 367.074 C 213.214 360.220, 221.859 359.287, 225.011 365.543 L 226.521 368.541 232.507 367.213 C 235.800 366.483, 239.424 365.011, 240.561 363.943 C 242.823 361.818, 245.058 361.458, 246.575 362.975 C 247.717 364.117, 251.827 363.086, 263.500 358.730 C 277.183 353.623, 283.992 349.817, 283.996 347.273 C 284.002 344.090, 288.207 341.505, 290.973 342.986 C 293.427 344.299, 296.041 342.928, 307.707 334.209 C 314.213 329.346, 314.861 328.553, 314.361 326.055 C 313.726 322.880, 316.102 321.212, 318 323.500 C 318.630 324.260, 319.812 324.626, 320.625 324.314 C 321.844 323.846, 321.742 323.409, 320.052 321.834 C 317.769 319.707, 317.491 317.820, 319.035 314.934 C 320.281 312.607, 324.640 312.364, 326.989 314.490 C 328.476 315.836, 329.071 315.472, 333.131 310.740 C 340.858 301.734, 348.568 290.867, 354.232 281 C 358.644 273.313, 359.477 271.165, 358.600 269.747 C 357.197 267.480, 358.795 264.796, 362.095 263.872 C 363.418 263.502, 364.194 263.155, 363.820 263.100 C 363.446 263.045, 364.258 260.250, 365.623 256.888 C 368.771 249.143, 372.744 234.268, 374.966 221.917 C 376.604 212.806, 376.603 212.227, 374.937 210.171 C 372.970 207.741, 373.404 204.387, 375.887 202.842 C 378.324 201.324, 377.554 189.076, 374.905 187.221 C 372.489 185.528, 372.432 181.961, 374.811 181.339 C 376.448 180.911, 376.543 180.173, 375.795 173.683 C 374.354 161.178, 371.931 150.596, 369.838 147.663 C 368.638 145.983, 368.034 143.979, 368.356 142.746 C 368.949 140.480, 364.117 127.137, 359.118 117.234 C 357.403 113.837, 355.970 110.257, 355.932 109.279 C 355.877 107.822, 355.670 107.904, 354.789 109.728 C 352.852 113.742, 346.734 113.887, 345.484 109.949 C 344.462 106.730, 345.937 103.963, 349 103.350 L 351.839 102.782 346.920 95.887 C 344.214 92.095, 342 88.737, 342 88.425 C 342 88.113, 341.438 87.256, 340.750 86.521 C 340.063 85.787, 336.125 81.464, 332 76.914 C 327.875 72.365, 323.164 67.486, 321.532 66.072 C 319.900 64.657, 317.376 62.361, 315.925 60.970 C 313.340 58.492, 313.267 58.481, 312.393 60.464 C 310.574 64.588, 305 63.053, 305 58.427 C 305 57.147, 305.667 55.726, 306.483 55.270 C 307.599 54.645, 306.056 53.169, 300.233 49.292 C 289.840 42.373, 275.364 34.512, 268.287 31.943 C 249.583 25.155, 249.336 25.092, 247.666 26.763 C 246.376 28.052, 245.827 28.101, 244.550 27.042 C 243.698 26.334, 242.982 25.023, 242.960 24.128 C 242.934 23.089, 242.382 23.491, 241.435 25.237 C 238.542 30.569, 231 29.259, 231 23.425 C 231 21.360, 230.403 21.101, 224.250 20.499 C 220.537 20.136, 216.684 19.611, 215.687 19.332 C 214.112 18.892, 214.035 19.082, 215.095 20.780 C 216.613 23.211, 215.565 26.258, 213.360 25.824 C 212.455 25.646, 211.216 24.686, 210.607 23.691 C 209.721 22.244, 209.888 21.595, 211.441 20.441 C 213.169 19.158, 212.060 19, 201.358 19 C 194.744 19, 189.146 19.186, 188.917 19.414 M 191.566 25.577 C 188.434 28.709, 192.045 33.723, 195.750 31.386 C 198.132 29.884, 197.952 27.044, 195.366 25.327 C 193.495 24.085, 193.028 24.115, 191.566 25.577 M 166.446 31.087 C 165.505 32.610, 167.549 34.387, 169.416 33.671 C 170.314 33.326, 170.718 32.429, 170.376 31.538 C 169.694 29.759, 167.427 29.499, 166.446 31.087 M 178.527 35.616 C 176.700 37.443, 176.900 38.904, 179.174 40.338 C 182.670 42.543, 185.762 38.162, 182.800 35.200 C 181.211 33.611, 180.458 33.685, 178.527 35.616 M 224.362 35.500 C 224.045 36.325, 224.057 37.707, 224.389 38.571 C 224.911 39.930, 224.215 40.057, 219.246 39.505 C 216.086 39.154, 212.414 38.335, 211.086 37.684 C 209.196 36.757, 208.582 36.771, 208.253 37.750 C 208.022 38.438, 206.282 39, 204.385 39 C 200.243 39, 168.355 43.671, 162 45.209 C 154.919 46.922, 148.679 50.499, 146.622 54.023 C 145.143 56.558, 144.866 58.434, 145.317 62.870 C 145.789 67.506, 148.448 73.619, 160.379 97.500 C 173.432 123.624, 188.111 154.232, 194.664 168.990 C 199.074 178.920, 203.599 181.609, 206.491 176.017 C 207.339 174.377, 209.772 167.514, 211.897 160.767 C 218.334 140.328, 233.744 96.664, 240.184 80.615 C 244.806 69.098, 246.371 63.897, 246.758 58.766 L 247.267 52.031 243.339 48.103 C 240.615 45.380, 237.670 43.669, 233.736 42.525 C 228.670 41.053, 228.182 40.682, 229.188 39.070 C 229.808 38.077, 230.034 36.530, 229.689 35.632 C 228.903 33.585, 225.133 33.491, 224.362 35.500 M 254.223 36.557 C 251.524 38.447, 251.369 41.119, 253.829 43.345 C 257.330 46.513, 261 44.717, 261 39.835 C 261 38.125, 260.262 36.675, 259.066 36.035 C 256.634 34.734, 256.860 34.710, 254.223 36.557 M 153.658 36.675 C 153.296 37.037, 153 37.933, 153 38.667 C 153 40.156, 155.578 40.492, 156.430 39.113 C 157.111 38.012, 154.562 35.771, 153.658 36.675 M 116.364 42.493 C 116.018 43.396, 116.214 44.614, 116.800 45.200 C 118.324 46.724, 121.210 45.331, 120.812 43.265 C 120.369 40.963, 117.165 40.407, 116.364 42.493 M 133.571 42.571 C 130.551 45.592, 132.289 50, 136.500 50 C 139.180 50, 141 48.180, 141 45.500 C 141 41.289, 136.592 39.551, 133.571 42.571 M 284.364 44.493 C 284.018 45.396, 284.214 46.614, 284.800 47.200 C 286.324 48.724, 289.210 47.331, 288.812 45.265 C 288.369 42.963, 285.165 42.407, 284.364 44.493 M 275.667 44.667 C 274.290 46.043, 275.073 48, 277 48 C 278.333 48, 279 47.333, 279 46 C 279 44.073, 277.043 43.290, 275.667 44.667 M 270.709 52.624 C 270.319 53.014, 270 54.131, 270 55.105 C 270 57.540, 264.778 57.181, 263.755 54.676 C 262.713 52.125, 259.479 52.981, 259.579 55.780 C 259.627 57.103, 257.934 59.799, 255.388 62.456 C 249.111 69.007, 245.021 78.586, 236.551 106.579 C 232.378 120.373, 224.921 142.159, 219.982 154.993 C 215.042 167.827, 211 179.323, 211 180.541 C 211 183.662, 213.419 185.357, 216.737 184.559 C 218.257 184.194, 226.250 180.151, 234.500 175.575 C 242.750 170.999, 262.550 160.688, 278.500 152.662 C 315.389 134.098, 324.195 128.325, 328.594 119.818 C 330.633 115.875, 329.690 99, 327.431 99 C 326.685 99, 324.310 96.412, 322.154 93.250 C 317.651 86.644, 307.778 76.942, 300.500 71.969 C 297.750 70.090, 290.550 65.964, 284.500 62.800 C 278.450 59.636, 274.094 57.036, 274.820 57.024 C 277.016 56.984, 275.759 52.537, 273.459 52.208 C 272.336 52.047, 271.099 52.235, 270.709 52.624 M 290.075 55.409 C 288.190 57.681, 289.688 61, 292.599 61 C 295.416 61, 296.802 58.496, 295.302 56.114 C 293.919 53.917, 291.576 53.601, 290.075 55.409 M 122.908 57.325 C 114.804 60.327, 107.862 66.857, 83.919 94 C 75.182 103.905, 65.931 118.285, 64.463 124.242 C 63.912 126.478, 63.370 126.880, 61.529 126.418 C 60.045 126.045, 59.074 126.366, 58.695 127.352 C 58.083 128.947, 60.607 131.726, 61.686 130.647 C 62.037 130.296, 63.114 131.772, 64.078 133.926 C 66.173 138.604, 68.053 139.917, 81.332 145.978 C 86.924 148.531, 95.369 152.952, 100.097 155.804 C 114.592 164.546, 139.568 175.016, 168.839 184.622 C 183.899 189.565, 189.866 190.134, 193.065 186.935 C 196.013 183.987, 195.210 181.429, 184.776 160.568 C 175.427 141.875, 161.081 110.378, 153.318 91.500 C 146.468 74.844, 139.231 61.300, 135.918 58.942 C 132.148 56.257, 127.389 55.666, 122.908 57.325 M 91.363 64.497 C 91.017 65.398, 91.196 66.596, 91.761 67.161 C 93.391 68.791, 96.500 67.692, 96.500 65.486 C 96.500 62.943, 92.272 62.128, 91.363 64.497 M 313.177 76.553 C 313.629 78.725, 315.404 78.858, 315.810 76.750 C 316.020 75.655, 315.530 75, 314.500 75 C 313.539 75, 312.988 75.647, 313.177 76.553 M 81.503 81.990 C 80.651 84.676, 82.692 87.187, 85.412 86.798 C 86.999 86.572, 87.500 85.780, 87.500 83.500 C 87.500 80.994, 87.061 80.449, 84.836 80.192 C 82.850 79.962, 82.001 80.420, 81.503 81.990 M 325.998 85.004 C 325.140 86.606, 325.154 87.480, 326.053 88.564 C 328.843 91.925, 333.615 88.788, 331.302 85.114 C 329.766 82.674, 327.272 82.622, 325.998 85.004 M 61.050 90.907 C 60.275 92.356, 60.463 93.350, 61.832 95.040 C 63.365 96.934, 63.960 97.092, 65.817 96.098 C 68.215 94.815, 68.672 92.072, 66.800 90.200 C 65.006 88.406, 62.204 88.751, 61.050 90.907 M 68 104.500 C 68 105.333, 68.889 106, 70 106 C 71.111 106, 72 105.333, 72 104.500 C 72 103.667, 71.111 103, 70 103 C 68.889 103, 68 103.667, 68 104.500 M 56.688 111.646 C 55.272 113.061, 56.073 115, 58.073 115 C 59.471 115, 60.041 114.457, 59.823 113.333 C 59.466 111.492, 57.759 110.574, 56.688 111.646 M 289.500 119.765 C 288.950 120.169, 288.354 121.162, 288.176 121.972 C 287.934 123.070, 288.380 122.967, 289.926 121.567 C 291.067 120.535, 292 119.535, 292 119.345 C 292 118.752, 290.546 118.997, 289.500 119.765 M 342.064 121.423 C 340.512 123.293, 341.497 125, 344.129 125 C 345.624 125, 346.057 124.443, 345.820 122.828 C 345.420 120.115, 343.688 119.466, 342.064 121.423 M 42 128 C 39.592 130.408, 39.465 132.322, 41.571 134.429 C 43.436 136.294, 47.117 136.483, 48.800 134.800 C 50.709 132.891, 50.195 129.250, 47.777 127.557 C 44.917 125.553, 44.408 125.592, 42 128 M 356.336 127.567 C 355.426 129.939, 357.559 131.611, 359.470 130.025 C 360.654 129.042, 360.754 128.409, 359.890 127.367 C 358.392 125.563, 357.077 125.637, 356.336 127.567 M 205.607 133.582 C 204.680 135.996, 204.838 136.157, 207 135 C 208.484 134.206, 209 134.240, 209 135.131 C 209 135.793, 209.236 136.098, 209.524 135.810 C 210.412 134.921, 208.861 132, 207.500 132 C 206.793 132, 205.941 132.712, 205.607 133.582 M 341.163 136.878 C 340.427 137.345, 339.977 138.800, 340.163 140.113 C 340.416 141.902, 341.126 142.500, 343 142.500 C 344.874 142.500, 345.584 141.902, 345.837 140.113 C 346.126 138.072, 344.707 136.031, 343 136.031 C 342.725 136.031, 341.898 136.412, 341.163 136.878 M 357.666 140.427 C 356.941 142.318, 359.188 144.120, 360.929 143.044 C 362.585 142.020, 361.621 139, 359.638 139 C 358.855 139, 357.968 139.642, 357.666 140.427 M 320 145.060 C 315.875 146.706, 306.200 149.805, 298.500 151.947 C 290.800 154.089, 279.775 157.857, 274 160.320 C 241.707 174.094, 223.444 183.349, 220.055 187.657 C 215.048 194.022, 218.239 196.549, 240.560 203.900 C 250.427 207.149, 269.750 214.187, 283.500 219.540 C 297.250 224.893, 313.675 231.219, 320 233.598 C 335.990 239.611, 342.808 239.353, 346.915 232.578 C 348.872 229.351, 351 220.812, 351 216.188 C 351 214.365, 351.718 213.150, 353.185 212.487 C 354.387 211.944, 355.532 210.990, 355.730 210.366 C 356.162 209.002, 353.157 205.785, 352.075 206.453 C 351.436 206.848, 348.973 181.199, 348.994 174.367 C 348.998 173.042, 349.798 172.025, 351.105 171.683 C 353.724 170.998, 353.045 168.475, 350.267 168.567 C 348.602 168.621, 348.014 167.632, 347 163.067 C 345.084 154.436, 342.185 147.457, 339.330 144.603 C 335.749 141.022, 329.769 141.164, 320 145.060 M 153.607 145.826 C 153.326 146.281, 153.357 147.649, 153.676 148.867 L 154.255 151.082 155.696 149.024 C 156.488 147.892, 157.669 147.232, 158.318 147.557 C 158.968 147.882, 158.626 147.440, 157.559 146.574 C 155.380 144.807, 154.357 144.614, 153.607 145.826 M 59.030 151.583 C 54.209 153.675, 52.236 155.678, 49.983 160.772 C 48.111 165.004, 45.010 179.997, 45.003 184.849 C 45.001 186.141, 44.254 188.770, 43.342 190.692 C 42.259 192.974, 42.041 194.414, 42.713 194.843 C 43.279 195.204, 43.941 199.373, 44.184 204.108 C 44.545 211.131, 44.364 212.696, 43.202 212.608 C 41.236 212.459, 39.540 215.359, 40.353 217.478 C 40.821 218.697, 41.771 219.086, 43.483 218.759 C 45.552 218.363, 46.114 218.816, 47.042 221.629 C 47.649 223.466, 47.848 225.905, 47.485 227.049 C 47.031 228.477, 47.503 229.814, 48.992 231.314 C 50.184 232.517, 52.136 235.034, 53.330 236.908 C 57.131 242.877, 60.287 244.511, 67.824 244.413 C 77.401 244.288, 89.711 239.827, 129.063 222.222 C 147.453 213.994, 164.525 206.375, 167 205.290 C 172.822 202.737, 178 198.331, 178 195.931 C 178 193.270, 173.229 191.096, 154 184.996 C 137.314 179.702, 122.680 173.414, 106.795 164.713 C 95.639 158.602, 87.090 155.395, 74 152.411 C 61.731 149.615, 63.361 149.705, 59.030 151.583 M 51.250 151.662 C 50.563 151.940, 50 153.333, 50 154.758 L 50 157.349 52.469 155.029 C 55.580 152.107, 54.887 150.195, 51.250 151.662 M 353.411 152.371 C 352.299 155.268, 353.432 157.500, 356.014 157.500 C 358.110 157.500, 358.500 157.029, 358.500 154.500 C 358.500 152.148, 358.013 151.431, 356.246 151.180 C 354.923 150.992, 353.751 151.485, 353.411 152.371 M 36.573 158.569 C 34.417 160.726, 36.260 164.246, 39.318 163.811 C 43.012 163.285, 42.561 157.100, 38.821 157.015 C 38.448 157.007, 37.437 157.706, 36.573 158.569 M 365.040 163.452 C 362.392 166.642, 366.299 171.657, 369.416 169.070 C 371.459 167.374, 371.460 163.391, 369.418 162.607 C 367.080 161.710, 366.372 161.847, 365.040 163.452 M 36.624 177.538 C 36.284 178.423, 36.681 179.324, 37.560 179.661 C 39.517 180.412, 40.409 179.509, 39.655 177.543 C 38.896 175.565, 37.382 175.562, 36.624 177.538 M 358.543 182.931 C 358.226 183.443, 358.425 184.144, 358.984 184.490 C 360.177 185.227, 362 184.291, 362 182.941 C 362 181.724, 359.293 181.716, 358.543 182.931 M 130.510 189.016 C 130.856 189.575, 131.557 189.774, 132.069 189.457 C 133.456 188.600, 133.198 188, 131.441 188 C 130.584 188, 130.165 188.457, 130.510 189.016 M 267.429 193 C 267.429 194.945, 268.996 195.671, 270.325 194.342 C 271.013 193.653, 269.240 191, 268.092 191 C 267.727 191, 267.429 191.900, 267.429 193 M 361.389 198.430 C 360.393 201.025, 361.788 203.169, 364.246 202.820 C 365.898 202.585, 366.500 201.833, 366.500 200 C 366.500 198.167, 365.898 197.415, 364.246 197.180 C 362.893 196.988, 361.750 197.488, 361.389 198.430 M 212.250 199.020 C 208.266 200.641, 209.437 203.910, 221.599 225.099 C 230.684 240.929, 237.607 256.238, 243.485 273.500 C 248.130 287.139, 252.502 295.933, 260.333 307.389 C 266.899 316.995, 270.595 319.990, 275.890 319.996 C 277.892 319.998, 279.777 320.680, 280.495 321.662 C 281.981 323.695, 284.976 322.788, 285.059 320.281 C 285.095 319.190, 287.890 316.757, 292.277 314 C 303.205 307.131, 320.574 289.315, 325.698 279.719 C 330.813 270.138, 333.598 260.003, 332.591 254.633 C 331.391 248.239, 324.317 242.156, 309.867 235.096 C 297.451 229.029, 223.118 199.710, 217.500 198.663 C 215.850 198.356, 213.488 198.516, 212.250 199.020 M 165.500 211.310 C 154.500 216.966, 137.625 225.120, 128 229.431 C 102.661 240.781, 84.325 250.284, 77.771 255.466 C 66.932 264.037, 65.366 272.631, 72.213 285.976 C 74.944 291.300, 75.440 293.001, 74.377 293.409 C 72.514 294.124, 72.634 297.451, 74.581 299.067 C 75.771 300.054, 76.603 300.105, 77.938 299.271 C 79.447 298.328, 80.750 299.212, 86.607 305.151 C 96.589 315.272, 116.115 327.560, 127.750 331.044 C 133.898 332.885, 138.603 331.200, 144.288 325.123 C 150.845 318.114, 154.820 309.446, 164.582 280.875 C 169.336 266.962, 177.254 246.111, 182.178 234.539 C 194.682 205.157, 194.648 205.252, 193.375 203.221 C 190.896 199.262, 186.387 200.570, 165.500 211.310 M 199.079 203.921 C 197.998 205.002, 195.113 212.100, 192.669 219.693 C 186.465 238.971, 167.346 291.714, 160.485 308.484 C 155.627 320.354, 154.743 323.480, 154.631 329.171 C 154.506 335.551, 154.668 336.048, 157.996 339.488 C 160.574 342.153, 163.396 343.680, 168.745 345.301 C 173.232 346.661, 175.831 347.949, 175.559 348.677 C 175.317 349.324, 175.727 350.358, 176.469 350.975 C 177.506 351.835, 178.152 351.620, 179.250 350.054 C 180.036 348.931, 180.924 348.257, 181.222 348.556 C 182.540 349.874, 204.845 348.974, 219 347.032 C 227.525 345.862, 236.750 344.640, 239.500 344.315 C 242.250 343.991, 244.950 343.396, 245.500 342.993 C 246.050 342.590, 248.137 341.734, 250.139 341.090 C 254.711 339.618, 260.634 333.951, 261.430 330.287 C 262.565 325.061, 259.002 315.515, 246.579 290.500 C 239.751 276.750, 228.253 252.675, 221.029 237 C 206.821 206.171, 205.988 204.599, 203.023 203.012 C 201.458 202.175, 200.636 202.364, 199.079 203.921 M 32.200 204.200 C 29.214 207.186, 32.526 211.859, 36.224 209.880 C 39.172 208.302, 37.843 203, 34.500 203 C 33.895 203, 32.860 203.540, 32.200 204.200 M 56.229 204.188 C 56.447 204.841, 57.171 205.482, 57.837 205.613 C 58.504 205.743, 58.586 205.620, 58.019 205.340 C 57.452 205.059, 57.242 204.418, 57.553 203.915 C 57.864 203.412, 57.604 203, 56.976 203 C 56.347 203, 56.011 203.534, 56.229 204.188 M 164.500 220 C 164.160 220.550, 164.610 221, 165.500 221 C 166.390 221, 166.840 220.550, 166.500 220 C 166.160 219.450, 165.710 219, 165.500 219 C 165.290 219, 164.840 219.450, 164.500 220 M 363 227 C 360.483 229.517, 360.472 231.212, 362.960 233.464 C 367.464 237.540, 373.540 231.464, 369.464 226.960 C 367.212 224.472, 365.517 224.483, 363 227 M 33.441 229.096 C 32.384 230.806, 35.718 233.682, 37.126 232.274 C 37.753 231.647, 37.995 230.429, 37.664 229.567 C 36.972 227.764, 34.439 227.481, 33.441 229.096 M 349.441 236.096 C 348.559 237.522, 351.478 240.441, 352.904 239.559 C 354.810 238.382, 354.183 235, 352.059 235 C 350.991 235, 349.813 235.493, 349.441 236.096 M 38.200 239.200 C 36.558 240.842, 36.690 244.498, 38.445 245.954 C 40.463 247.629, 44.015 246.887, 45.622 244.454 C 48.321 240.367, 41.711 235.689, 38.200 239.200 M 62.046 249.444 C 59.345 252.699, 63.815 256.614, 66.811 253.618 C 68.084 252.344, 68.215 251.563, 67.376 250.231 C 65.916 247.913, 63.601 247.571, 62.046 249.444 M 194 249.749 C 194 251.669, 197.053 252.526, 198.086 250.896 C 199.520 248.631, 199.150 248.010, 196.500 248.229 C 195.125 248.343, 194 249.027, 194 249.749 M 336.659 250.446 C 335.614 253.168, 337.063 255.130, 339.878 254.804 C 341.927 254.566, 342.500 253.954, 342.500 252 C 342.500 250.046, 341.927 249.434, 339.878 249.196 C 338.217 249.003, 337.037 249.461, 336.659 250.446 M 357 251 C 357 252.506, 357.522 253.046, 358.750 252.810 C 359.712 252.624, 360.500 251.810, 360.500 251 C 360.500 250.190, 359.712 249.376, 358.750 249.190 C 357.522 248.954, 357 249.494, 357 251 M 353 256.927 C 353 258.358, 353.642 259, 355.073 259 C 356.504 259, 357.043 258.461, 356.812 257.261 C 356.310 254.655, 353 254.364, 353 256.927 M 340.389 262.430 C 339.398 265.010, 340.769 267, 343.535 267 C 345.779 267, 346.090 266.625, 345.816 264.250 C 345.452 261.079, 341.425 259.729, 340.389 262.430 M 57.389 264.430 C 56.393 267.025, 57.788 269.169, 60.246 268.820 C 61.898 268.585, 62.500 267.833, 62.500 266 C 62.500 264.167, 61.898 263.415, 60.246 263.180 C 58.893 262.988, 57.750 263.488, 57.389 264.430 M 108.991 264.511 C 107.641 266.137, 108.700 266.476, 110.857 265.110 C 111.681 264.587, 111.824 264.009, 111.220 263.636 C 110.674 263.298, 109.671 263.692, 108.991 264.511 M 340.410 278.375 C 339.211 281.498, 340.424 283.500, 343.514 283.500 C 346.165 283.500, 346.500 283.164, 346.500 280.500 C 346.500 277.969, 346.069 277.450, 343.744 277.183 C 341.986 276.981, 340.779 277.412, 340.410 278.375 M 307 282 C 305.718 282.828, 305.754 282.972, 307.250 282.985 C 308.212 282.993, 309 282.550, 309 282 C 309 280.780, 308.887 280.780, 307 282 M 57.141 284.330 C 55.442 286.378, 56.836 289.166, 59.377 288.803 C 60.891 288.587, 61.500 287.786, 61.500 286.014 C 61.500 283.161, 58.934 282.170, 57.141 284.330 M 324.496 287.007 C 324.153 287.561, 324.596 288.292, 325.480 288.631 C 327.394 289.365, 328.461 288.556, 327.541 287.067 C 326.711 285.723, 325.306 285.696, 324.496 287.007 M 335.212 297.188 C 333.572 298.828, 333.688 300.496, 335.550 302.042 C 337.768 303.882, 340.974 300.767, 339.412 298.291 C 338.007 296.064, 336.684 295.716, 335.212 297.188 M 314.930 300.584 C 313.406 302.421, 314.706 305.301, 317.290 305.810 C 319.784 306.302, 321.341 302.484, 319.427 300.569 C 317.451 298.594, 316.580 298.597, 314.930 300.584 M 82.571 314.571 C 79.859 317.284, 81.358 321, 85.165 321 C 86.652 321, 89 318.329, 89 316.637 C 89 315.807, 85.913 313, 85 313 C 84.529 313, 83.436 313.707, 82.571 314.571 M 293.980 323.038 C 292.441 325.913, 293.678 328.881, 296.735 329.648 C 301.334 330.803, 304.444 324.416, 300.573 321.765 C 298.509 320.352, 295.061 321.017, 293.980 323.038 M 100 326 C 100 327.506, 100.522 328.046, 101.750 327.810 C 102.713 327.624, 103.500 326.810, 103.500 326 C 103.500 325.190, 102.713 324.376, 101.750 324.190 C 100.522 323.954, 100 324.494, 100 326 M 138.709 331.624 C 137.432 332.901, 137.966 336.773, 139.500 337.362 C 142.172 338.387, 144.128 336.915, 143.804 334.122 C 143.505 331.547, 140.339 329.995, 138.709 331.624 M 276.533 333.947 C 275.653 335.370, 276.775 337, 278.632 337 C 279.508 337, 280.010 336.297, 279.823 335.333 C 279.434 333.324, 277.437 332.484, 276.533 333.947 M 113.200 335.200 C 110.412 337.988, 112.510 343.014, 116.450 342.985 C 119.653 342.961, 121.250 341.468, 121.250 338.500 C 121.250 334.414, 116.098 332.302, 113.200 335.200 M 257.500 338 C 256.663 339.354, 257.792 341, 259.559 341 C 260.352 341, 261 340.100, 261 339 C 261 336.930, 258.587 336.240, 257.500 338 M 142.053 347.436 C 141.154 348.520, 141.140 349.394, 141.998 350.996 C 143.272 353.378, 145.766 353.326, 147.302 350.886 C 149.615 347.212, 144.843 344.075, 142.053 347.436 M 166.553 346.915 C 166.231 347.436, 166.394 348.125, 166.915 348.447 C 167.436 348.769, 168.125 348.606, 168.447 348.085 C 168.769 347.564, 168.606 346.875, 168.085 346.553 C 167.564 346.231, 166.875 346.394, 166.553 346.915 M 268.050 348.907 C 266.537 351.734, 270.113 355.965, 272.687 354.393 C 274.963 353.003, 275.532 350.346, 273.960 348.452 C 272.269 346.414, 269.260 346.646, 268.050 348.907 M 234.200 349.200 C 233.540 349.860, 233 351.345, 233 352.500 C 233 355.374, 234.867 357, 238.165 357 C 240.750 357, 243 354.737, 243 352.137 C 243 348.846, 236.667 346.733, 234.200 349.200 M 220 350.500 C 220 351.325, 220.675 352, 221.500 352 C 222.325 352, 223 351.325, 223 350.500 C 223 349.675, 222.325 349, 221.500 349 C 220.675 349, 220 349.675, 220 350.500 M 160 352.441 C 160 353.234, 160.399 354.129, 160.887 354.430 C 161.988 355.111, 164.229 352.562, 163.325 351.658 C 162.135 350.468, 160 350.971, 160 352.441 M 205.709 352.624 C 204.160 354.173, 205.039 357.878, 207.112 358.535 C 210.057 359.470, 212.881 356.624, 211.381 354.231 C 210.227 352.390, 206.889 351.444, 205.709 352.624 M 253.571 353.571 C 251.491 355.652, 251.589 357.318, 253.917 359.425 C 255.446 360.809, 256.255 360.934, 257.917 360.045 C 260.575 358.622, 260.664 354.426, 258.066 353.035 C 255.564 351.696, 255.431 351.712, 253.571 353.571 M 187.529 358.355 C 185.479 359.854, 185.798 362.843, 188.166 364.335 C 189.374 365.095, 190.268 365.022, 191.416 364.070 C 195.049 361.054, 191.325 355.579, 187.529 358.355 M 228.250 359.731 C 227.563 359.970, 227 360.981, 227 361.976 C 227 363.921, 228.725 364.976, 230.750 364.269 C 231.438 364.030, 232 363.019, 232 362.024 C 232 360.079, 230.275 359.024, 228.250 359.731" stroke="none" fill="#f4f8d3" fill-rule="evenodd"/><path d="M 184.500 4.109 C 139.883 8.266, 96.023 29.373, 64.964 61.634 C 55.939 71.008, 41.449 89.599, 33.492 102.013 C 5.073 146.349, -3.742 202.286, 9.635 253.409 C 29.028 327.525, 90.048 382.533, 166.043 394.408 C 217.269 402.412, 270.332 388.521, 311.961 356.209 C 330.138 342.100, 345.240 324.887, 359.973 301.487 C 382.710 265.372, 392.276 233.723, 392.309 194.500 C 392.327 173.639, 390.081 158.002, 384.352 139.087 C 364.102 72.238, 308.351 21.217, 240.558 7.493 C 220.303 3.392, 203.243 2.363, 184.500 4.109 M 188.917 19.414 C 188.688 19.642, 186.025 19.951, 183 20.101 C 179.058 20.297, 177.130 20.888, 176.193 22.187 C 174.603 24.394, 171.689 24.535, 169.990 22.488 C 169.228 21.570, 168.295 21.315, 167.617 21.838 C 167.003 22.312, 163.688 23.279, 160.250 23.987 C 156.332 24.793, 154 25.773, 154 26.614 C 154 27.351, 152.930 28.655, 151.623 29.511 C 149.698 30.772, 148.756 30.846, 146.674 29.897 C 143.693 28.539, 139.549 29.973, 122 38.436 L 111.500 43.500 113.750 45.714 C 116.397 48.320, 116.594 50.263, 114.429 52.429 C 111.866 54.991, 108.130 54.389, 106.249 51.111 L 104.591 48.222 96.646 54.270 C 86.907 61.683, 74.927 72.870, 75.105 74.384 C 75.428 77.119, 74.871 78.104, 73.162 77.814 C 70.715 77.400, 62.389 87.366, 53.625 101.201 C 49.896 107.086, 46.789 112.261, 46.721 112.701 C 46.652 113.140, 45.153 116.464, 43.390 120.087 C 35.276 136.760, 28.685 161.053, 27.414 178.975 C 27.122 183.086, 26.713 186.620, 26.505 186.828 C 26.298 187.036, 27.320 188.232, 28.778 189.485 C 31.149 191.525, 31.302 192.041, 30.235 194.382 C 29.580 195.822, 28.452 197, 27.730 197 C 26.684 197, 26.581 198.858, 27.221 206.163 C 27.664 211.202, 28.520 215.922, 29.125 216.650 C 29.744 217.396, 29.887 218.744, 29.453 219.737 C 29.029 220.707, 28.744 221.807, 28.818 222.181 C 32.465 240.470, 37.415 257.029, 39.615 258.300 C 40.377 258.740, 41 260.250, 41 261.657 C 41 263.617, 41.383 264.067, 42.641 263.584 C 43.543 263.238, 45.343 263.650, 46.641 264.500 C 49.527 266.391, 49.748 270.379, 47.093 272.652 C 45.854 273.714, 45.512 274.672, 46.116 275.392 C 46.627 276.002, 49.298 280.306, 52.051 284.957 C 59.579 297.675, 66.052 305.799, 68.208 305.235 C 69.194 304.978, 70.037 305.157, 70.083 305.633 C 70.129 306.110, 70.283 307.564, 70.425 308.863 C 70.743 311.784, 85.524 326.410, 96 334.170 C 110.688 345.049, 125.756 353.400, 128.065 351.939 C 131.552 349.732, 137 352.302, 137 356.152 C 137 357.152, 139.897 358.570, 145.750 360.435 C 150.563 361.969, 155.175 363.472, 156 363.775 C 158.120 364.556, 158.030 364.534, 163 365.422 C 165.475 365.864, 168.008 366.635, 168.628 367.134 C 169.374 367.735, 169.926 367.392, 170.258 366.120 C 170.535 365.063, 171.704 363.693, 172.858 363.076 C 174.583 362.153, 175.326 362.326, 177.054 364.054 C 178.210 365.210, 178.911 366.789, 178.613 367.565 C 178.316 368.341, 178.393 368.889, 178.786 368.783 C 179.179 368.677, 183.272 368.922, 187.883 369.329 C 195.034 369.960, 196.541 369.821, 198.133 368.380 C 199.871 366.807, 200.126 366.804, 201.829 368.345 C 202.835 369.255, 205.041 370, 206.731 370 C 209.229 370, 209.995 369.453, 210.824 367.074 C 213.214 360.220, 221.859 359.287, 225.011 365.543 L 226.521 368.541 232.507 367.213 C 235.800 366.483, 239.424 365.011, 240.561 363.943 C 242.823 361.818, 245.058 361.458, 246.575 362.975 C 247.717 364.117, 251.827 363.086, 263.500 358.730 C 277.183 353.623, 283.992 349.817, 283.996 347.273 C 284.002 344.090, 288.207 341.505, 290.973 342.986 C 293.427 344.299, 296.041 342.928, 307.707 334.209 C 314.213 329.346, 314.861 328.553, 314.361 326.055 C 313.726 322.880, 316.102 321.212, 318 323.500 C 318.630 324.260, 319.812 324.626, 320.625 324.314 C 321.844 323.846, 321.742 323.409, 320.052 321.834 C 317.769 319.707, 317.491 317.820, 319.035 314.934 C 320.281 312.607, 324.640 312.364, 326.989 314.490 C 328.476 315.836, 329.071 315.472, 333.131 310.740 C 340.858 301.734, 348.568 290.867, 354.232 281 C 358.644 273.313, 359.477 271.165, 358.600 269.747 C 357.197 267.480, 358.795 264.796, 362.095 263.872 C 363.418 263.502, 364.194 263.155, 363.820 263.100 C 363.446 263.045, 364.258 260.250, 365.623 256.888 C 368.771 249.143, 372.744 234.268, 374.966 221.917 C 376.604 212.806, 376.603 212.227, 374.937 210.171 C 372.970 207.741, 373.404 204.387, 375.887 202.842 C 378.324 201.324, 377.554 189.076, 374.905 187.221 C 372.489 185.528, 372.432 181.961, 374.811 181.339 C 376.448 180.911, 376.543 180.173, 375.795 173.683 C 374.354 161.178, 371.931 150.596, 369.838 147.663 C 368.638 145.983, 368.034 143.979, 368.356 142.746 C 368.949 140.480, 364.117 127.137, 359.118 117.234 C 357.403 113.837, 355.970 110.257, 355.932 109.279 C 355.877 107.822, 355.670 107.904, 354.789 109.728 C 352.852 113.742, 346.734 113.887, 345.484 109.949 C 344.462 106.730, 345.937 103.963, 349 103.350 L 351.839 102.782 346.920 95.887 C 344.214 92.095, 342 88.737, 342 88.425 C 342 88.113, 341.438 87.256, 340.750 86.521 C 340.063 85.787, 336.125 81.464, 332 76.914 C 327.875 72.365, 323.164 67.486, 321.532 66.072 C 319.900 64.657, 317.376 62.361, 315.925 60.970 C 313.340 58.492, 313.267 58.481, 312.393 60.464 C 310.574 64.588, 305 63.053, 305 58.427 C 305 57.147, 305.667 55.726, 306.483 55.270 C 307.599 54.645, 306.056 53.169, 300.233 49.292 C 289.840 42.373, 275.364 34.512, 268.287 31.943 C 249.583 25.155, 249.336 25.092, 247.666 26.763 C 246.376 28.052, 245.827 28.101, 244.550 27.042 C 243.698 26.334, 242.982 25.023, 242.960 24.128 C 242.934 23.089, 242.382 23.491, 241.435 25.237 C 238.542 30.569, 231 29.259, 231 23.425 C 231 21.360, 230.403 21.101, 224.250 20.499 C 220.537 20.136, 216.684 19.611, 215.687 19.332 C 214.112 18.892, 214.035 19.082, 215.095 20.780 C 216.613 23.211, 215.565 26.258, 213.360 25.824 C 212.455 25.646, 211.216 24.686, 210.607 23.691 C 209.721 22.244, 209.888 21.595, 211.441 20.441 C 213.169 19.158, 212.060 19, 201.358 19 C 194.744 19, 189.146 19.186, 188.917 19.414 M 191.566 25.577 C 188.434 28.709, 192.045 33.723, 195.750 31.386 C 198.132 29.884, 197.952 27.044, 195.366 25.327 C 193.495 24.085, 193.028 24.115, 191.566 25.577 M 166.446 31.087 C 165.505 32.610, 167.549 34.387, 169.416 33.671 C 170.314 33.326, 170.718 32.429, 170.376 31.538 C 169.694 29.759, 167.427 29.499, 166.446 31.087 M 178.527 35.616 C 176.700 37.443, 176.900 38.904, 179.174 40.338 C 182.670 42.543, 185.762 38.162, 182.800 35.200 C 181.211 33.611, 180.458 33.685, 178.527 35.616 M 224.362 35.500 C 224.045 36.325, 224.057 37.707, 224.389 38.571 C 224.911 39.930, 224.215 40.057, 219.246 39.505 C 216.086 39.154, 212.414 38.335, 211.086 37.684 C 209.196 36.757, 208.582 36.771, 208.253 37.750 C 208.022 38.438, 206.282 39, 204.385 39 C 200.243 39, 168.355 43.671, 162 45.209 C 154.919 46.922, 148.679 50.499, 146.622 54.023 C 145.143 56.558, 144.866 58.434, 145.317 62.870 C 145.789 67.506, 148.448 73.619, 160.379 97.500 C 173.432 123.624, 188.111 154.232, 194.664 168.990 C 199.074 178.920, 203.599 181.609, 206.491 176.017 C 207.339 174.377, 209.772 167.514, 211.897 160.767 C 218.334 140.328, 233.744 96.664, 240.184 80.615 C 244.806 69.098, 246.371 63.897, 246.758 58.766 L 247.267 52.031 243.339 48.103 C 240.615 45.380, 237.670 43.669, 233.736 42.525 C 228.670 41.053, 228.182 40.682, 229.188 39.070 C 229.808 38.077, 230.034 36.530, 229.689 35.632 C 228.903 33.585, 225.133 33.491, 224.362 35.500 M 254.223 36.557 C 251.524 38.447, 251.369 41.119, 253.829 43.345 C 257.330 46.513, 261 44.717, 261 39.835 C 261 38.125, 260.262 36.675, 259.066 36.035 C 256.634 34.734, 256.860 34.710, 254.223 36.557 M 153.658 36.675 C 153.296 37.037, 153 37.933, 153 38.667 C 153 40.156, 155.578 40.492, 156.430 39.113 C 157.111 38.012, 154.562 35.771, 153.658 36.675 M 116.364 42.493 C 116.018 43.396, 116.214 44.614, 116.800 45.200 C 118.324 46.724, 121.210 45.331, 120.812 43.265 C 120.369 40.963, 117.165 40.407, 116.364 42.493 M 133.571 42.571 C 130.551 45.592, 132.289 50, 136.500 50 C 139.180 50, 141 48.180, 141 45.500 C 141 41.289, 136.592 39.551, 133.571 42.571 M 284.364 44.493 C 284.018 45.396, 284.214 46.614, 284.800 47.200 C 286.324 48.724, 289.210 47.331, 288.812 45.265 C 288.369 42.963, 285.165 42.407, 284.364 44.493 M 275.667 44.667 C 274.290 46.043, 275.073 48, 277 48 C 278.333 48, 279 47.333, 279 46 C 279 44.073, 277.043 43.290, 275.667 44.667 M 270.709 52.624 C 270.319 53.014, 270 54.131, 270 55.105 C 270 57.540, 264.778 57.181, 263.755 54.676 C 262.713 52.125, 259.479 52.981, 259.579 55.780 C 259.627 57.103, 257.934 59.799, 255.388 62.456 C 249.111 69.007, 245.021 78.586, 236.551 106.579 C 232.378 120.373, 224.921 142.159, 219.982 154.993 C 215.042 167.827, 211 179.323, 211 180.541 C 211 183.662, 213.419 185.357, 216.737 184.559 C 218.257 184.194, 226.250 180.151, 234.500 175.575 C 242.750 170.999, 262.550 160.688, 278.500 152.662 C 315.389 134.098, 324.195 128.325, 328.594 119.818 C 330.633 115.875, 329.690 99, 327.431 99 C 326.685 99, 324.310 96.412, 322.154 93.250 C 317.651 86.644, 307.778 76.942, 300.500 71.969 C 297.750 70.090, 290.550 65.964, 284.500 62.800 C 278.450 59.636, 274.094 57.036, 274.820 57.024 C 277.016 56.984, 275.759 52.537, 273.459 52.208 C 272.336 52.047, 271.099 52.235, 270.709 52.624 M 290.075 55.409 C 288.190 57.681, 289.688 61, 292.599 61 C 295.416 61, 296.802 58.496, 295.302 56.114 C 293.919 53.917, 291.576 53.601, 290.075 55.409 M 122.908 57.325 C 114.804 60.327, 107.862 66.857, 83.919 94 C 75.182 103.905, 65.931 118.285, 64.463 124.242 C 63.912 126.478, 63.370 126.880, 61.529 126.418 C 60.045 126.045, 59.074 126.366, 58.695 127.352 C 58.083 128.947, 60.607 131.726, 61.686 130.647 C 62.037 130.296, 63.114 131.772, 64.078 133.926 C 66.173 138.604, 68.053 139.917, 81.332 145.978 C 86.924 148.531, 95.369 152.952, 100.097 155.804 C 114.592 164.546, 139.568 175.016, 168.839 184.622 C 183.899 189.565, 189.866 190.134, 193.065 186.935 C 196.013 183.987, 195.210 181.429, 184.776 160.568 C 175.427 141.875, 161.081 110.378, 153.318 91.500 C 146.468 74.844, 139.231 61.300, 135.918 58.942 C 132.148 56.257, 127.389 55.666, 122.908 57.325 M 91.363 64.497 C 91.017 65.398, 91.196 66.596, 91.761 67.161 C 93.391 68.791, 96.500 67.692, 96.500 65.486 C 96.500 62.943, 92.272 62.128, 91.363 64.497 M 313.177 76.553 C 313.629 78.725, 315.404 78.858, 315.810 76.750 C 316.020 75.655, 315.530 75, 314.500 75 C 313.539 75, 312.988 75.647, 313.177 76.553 M 81.503 81.990 C 80.651 84.676, 82.692 87.187, 85.412 86.798 C 86.999 86.572, 87.500 85.780, 87.500 83.500 C 87.500 80.994, 87.061 80.449, 84.836 80.192 C 82.850 79.962, 82.001 80.420, 81.503 81.990 M 325.998 85.004 C 325.140 86.606, 325.154 87.480, 326.053 88.564 C 328.843 91.925, 333.615 88.788, 331.302 85.114 C 329.766 82.674, 327.272 82.622, 325.998 85.004 M 61.050 90.907 C 60.275 92.356, 60.463 93.350, 61.832 95.040 C 63.365 96.934, 63.960 97.092, 65.817 96.098 C 68.215 94.815, 68.672 92.072, 66.800 90.200 C 65.006 88.406, 62.204 88.751, 61.050 90.907 M 68 104.500 C 68 105.333, 68.889 106, 70 106 C 71.111 106, 72 105.333, 72 104.500 C 72 103.667, 71.111 103, 70 103 C 68.889 103, 68 103.667, 68 104.500 M 56.688 111.646 C 55.272 113.061, 56.073 115, 58.073 115 C 59.471 115, 60.041 114.457, 59.823 113.333 C 59.466 111.492, 57.759 110.574, 56.688 111.646 M 289.500 119.765 C 288.950 120.169, 288.354 121.162, 288.176 121.972 C 287.934 123.070, 288.380 122.967, 289.926 121.567 C 291.067 120.535, 292 119.535, 292 119.345 C 292 118.752, 290.546 118.997, 289.500 119.765 M 342.064 121.423 C 340.512 123.293, 341.497 125, 344.129 125 C 345.624 125, 346.057 124.443, 345.820 122.828 C 345.420 120.115, 343.688 119.466, 342.064 121.423 M 42 128 C 39.592 130.408, 39.465 132.322, 41.571 134.429 C 43.436 136.294, 47.117 136.483, 48.800 134.800 C 50.709 132.891, 50.195 129.250, 47.777 127.557 C 44.917 125.553, 44.408 125.592, 42 128 M 356.336 127.567 C 355.426 129.939, 357.559 131.611, 359.470 130.025 C 360.654 129.042, 360.754 128.409, 359.890 127.367 C 358.392 125.563, 357.077 125.637, 356.336 127.567 M 205.607 133.582 C 204.680 135.996, 204.838 136.157, 207 135 C 208.484 134.206, 209 134.240, 209 135.131 C 209 135.793, 209.236 136.098, 209.524 135.810 C 210.412 134.921, 208.861 132, 207.500 132 C 206.793 132, 205.941 132.712, 205.607 133.582 M 341.163 136.878 C 340.427 137.345, 339.977 138.800, 340.163 140.113 C 340.416 141.902, 341.126 142.500, 343 142.500 C 344.874 142.500, 345.584 141.902, 345.837 140.113 C 346.126 138.072, 344.707 136.031, 343 136.031 C 342.725 136.031, 341.898 136.412, 341.163 136.878 M 357.666 140.427 C 356.941 142.318, 359.188 144.120, 360.929 143.044 C 362.585 142.020, 361.621 139, 359.638 139 C 358.855 139, 357.968 139.642, 357.666 140.427 M 320 145.060 C 315.875 146.706, 306.200 149.805, 298.500 151.947 C 290.800 154.089, 279.775 157.857, 274 160.320 C 241.707 174.094, 223.444 183.349, 220.055 187.657 C 215.048 194.022, 218.239 196.549, 240.560 203.900 C 250.427 207.149, 269.750 214.187, 283.500 219.540 C 297.250 224.893, 313.675 231.219, 320 233.598 C 335.990 239.611, 342.808 239.353, 346.915 232.578 C 348.872 229.351, 351 220.812, 351 216.188 C 351 214.365, 351.718 213.150, 353.185 212.487 C 354.387 211.944, 355.532 210.990, 355.730 210.366 C 356.162 209.002, 353.157 205.785, 352.075 206.453 C 351.436 206.848, 348.973 181.199, 348.994 174.367 C 348.998 173.042, 349.798 172.025, 351.105 171.683 C 353.724 170.998, 353.045 168.475, 350.267 168.567 C 348.602 168.621, 348.014 167.632, 347 163.067 C 345.084 154.436, 342.185 147.457, 339.330 144.603 C 335.749 141.022, 329.769 141.164, 320 145.060 M 153.607 145.826 C 153.326 146.281, 153.357 147.649, 153.676 148.867 L 154.255 151.082 155.696 149.024 C 156.488 147.892, 157.669 147.232, 158.318 147.557 C 158.968 147.882, 158.626 147.440, 157.559 146.574 C 155.380 144.807, 154.357 144.614, 153.607 145.826 M 59.030 151.583 C 54.209 153.675, 52.236 155.678, 49.983 160.772 C 48.111 165.004, 45.010 179.997, 45.003 184.849 C 45.001 186.141, 44.254 188.770, 43.342 190.692 C 42.259 192.974, 42.041 194.414, 42.713 194.843 C 43.279 195.204, 43.941 199.373, 44.184 204.108 C 44.545 211.131, 44.364 212.696, 43.202 212.608 C 41.236 212.459, 39.540 215.359, 40.353 217.478 C 40.821 218.697, 41.771 219.086, 43.483 218.759 C 45.552 218.363, 46.114 218.816, 47.042 221.629 C 47.649 223.466, 47.848 225.905, 47.485 227.049 C 47.031 228.477, 47.503 229.814, 48.992 231.314 C 50.184 232.517, 52.136 235.034, 53.330 236.908 C 57.131 242.877, 60.287 244.511, 67.824 244.413 C 77.401 244.288, 89.711 239.827, 129.063 222.222 C 147.453 213.994, 164.525 206.375, 167 205.290 C 172.822 202.737, 178 198.331, 178 195.931 C 178 193.270, 173.229 191.096, 154 184.996 C 137.314 179.702, 122.680 173.414, 106.795 164.713 C 95.639 158.602, 87.090 155.395, 74 152.411 C 61.731 149.615, 63.361 149.705, 59.030 151.583 M 51.250 151.662 C 50.563 151.940, 50 153.333, 50 154.758 L 50 157.349 52.469 155.029 C 55.580 152.107, 54.887 150.195, 51.250 151.662 M 353.411 152.371 C 352.299 155.268, 353.432 157.500, 356.014 157.500 C 358.110 157.500, 358.500 157.029, 358.500 154.500 C 358.500 152.148, 358.013 151.431, 356.246 151.180 C 354.923 150.992, 353.751 151.485, 353.411 152.371 M 36.573 158.569 C 34.417 160.726, 36.260 164.246, 39.318 163.811 C 43.012 163.285, 42.561 157.100, 38.821 157.015 C 38.448 157.007, 37.437 157.706, 36.573 158.569 M 365.040 163.452 C 362.392 166.642, 366.299 171.657, 369.416 169.070 C 371.459 167.374, 371.460 163.391, 369.418 162.607 C 367.080 161.710, 366.372 161.847, 365.040 163.452 M 36.624 177.538 C 36.284 178.423, 36.681 179.324, 37.560 179.661 C 39.517 180.412, 40.409 179.509, 39.655 177.543 C 38.896 175.565, 37.382 175.562, 36.624 177.538 M 358.543 182.931 C 358.226 183.443, 358.425 184.144, 358.984 184.490 C 360.177 185.227, 362 184.291, 362 182.941 C 362 181.724, 359.293 181.716, 358.543 182.931 M 130.510 189.016 C 130.856 189.575, 131.557 189.774, 132.069 189.457 C 133.456 188.600, 133.198 188, 131.441 188 C 130.584 188, 130.165 188.457, 130.510 189.016 M 267.429 193 C 267.429 194.945, 268.996 195.671, 270.325 194.342 C 271.013 193.653, 269.240 191, 268.092 191 C 267.727 191, 267.429 191.900, 267.429 193 M 361.389 198.430 C 360.393 201.025, 361.788 203.169, 364.246 202.820 C 365.898 202.585, 366.500 201.833, 366.500 200 C 366.500 198.167, 365.898 197.415, 364.246 197.180 C 362.893 196.988, 361.750 197.488, 361.389 198.430 M 212.250 199.020 C 208.266 200.641, 209.437 203.910, 221.599 225.099 C 230.684 240.929, 237.607 256.238, 243.485 273.500 C 248.130 287.139, 252.502 295.933, 260.333 307.389 C 266.899 316.995, 270.595 319.990, 275.890 319.996 C 277.892 319.998, 279.777 320.680, 280.495 321.662 C 281.981 323.695, 284.976 322.788, 285.059 320.281 C 285.095 319.190, 287.890 316.757, 292.277 314 C 303.205 307.131, 320.574 289.315, 325.698 279.719 C 330.813 270.138, 333.598 260.003, 332.591 254.633 C 331.391 248.239, 324.317 242.156, 309.867 235.096 C 297.451 229.029, 223.118 199.710, 217.500 198.663 C 215.850 198.356, 213.488 198.516, 212.250 199.020 M 165.500 211.310 C 154.500 216.966, 137.625 225.120, 128 229.431 C 102.661 240.781, 84.325 250.284, 77.771 255.466 C 66.932 264.037, 65.366 272.631, 72.213 285.976 C 74.944 291.300, 75.440 293.001, 74.377 293.409 C 72.514 294.124, 72.634 297.451, 74.581 299.067 C 75.771 300.054, 76.603 300.105, 77.938 299.271 C 79.447 298.328, 80.750 299.212, 86.607 305.151 C 96.589 315.272, 116.115 327.560, 127.750 331.044 C 133.898 332.885, 138.603 331.200, 144.288 325.123 C 150.845 318.114, 154.820 309.446, 164.582 280.875 C 169.336 266.962, 177.254 246.111, 182.178 234.539 C 194.682 205.157, 194.648 205.252, 193.375 203.221 C 190.896 199.262, 186.387 200.570, 165.500 211.310 M 199.079 203.921 C 197.998 205.002, 195.113 212.100, 192.669 219.693 C 186.465 238.971, 167.346 291.714, 160.485 308.484 C 155.627 320.354, 154.743 323.480, 154.631 329.171 C 154.506 335.551, 154.668 336.048, 157.996 339.488 C 160.574 342.153, 163.396 343.680, 168.745 345.301 C 173.232 346.661, 175.831 347.949, 175.559 348.677 C 175.317 349.324, 175.727 350.358, 176.469 350.975 C 177.506 351.835, 178.152 351.620, 179.250 350.054 C 180.036 348.931, 180.924 348.257, 181.222 348.556 C 182.540 349.874, 204.845 348.974, 219 347.032 C 227.525 345.862, 236.750 344.640, 239.500 344.315 C 242.250 343.991, 244.950 343.396, 245.500 342.993 C 246.050 342.590, 248.137 341.734, 250.139 341.090 C 254.711 339.618, 260.634 333.951, 261.430 330.287 C 262.565 325.061, 259.002 315.515, 246.579 290.500 C 239.751 276.750, 228.253 252.675, 221.029 237 C 206.821 206.171, 205.988 204.599, 203.023 203.012 C 201.458 202.175, 200.636 202.364, 199.079 203.921 M 32.200 204.200 C 29.214 207.186, 32.526 211.859, 36.224 209.880 C 39.172 208.302, 37.843 203, 34.500 203 C 33.895 203, 32.860 203.540, 32.200 204.200 M 56.229 204.188 C 56.447 204.841, 57.171 205.482, 57.837 205.613 C 58.504 205.743, 58.586 205.620, 58.019 205.340 C 57.452 205.059, 57.242 204.418, 57.553 203.915 C 57.864 203.412, 57.604 203, 56.976 203 C 56.347 203, 56.011 203.534, 56.229 204.188 M 164.500 220 C 164.160 220.550, 164.610 221, 165.500 221 C 166.390 221, 166.840 220.550, 166.500 220 C 166.160 219.450, 165.710 219, 165.500 219 C 165.290 219, 164.840 219.450, 164.500 220 M 363 227 C 360.483 229.517, 360.472 231.212, 362.960 233.464 C 367.464 237.540, 373.540 231.464, 369.464 226.960 C 367.212 224.472, 365.517 224.483, 363 227 M 33.441 229.096 C 32.384 230.806, 35.718 233.682, 37.126 232.274 C 37.753 231.647, 37.995 230.429, 37.664 229.567 C 36.972 227.764, 34.439 227.481, 33.441 229.096 M 349.441 236.096 C 348.559 237.522, 351.478 240.441, 352.904 239.559 C 354.810 238.382, 354.183 235, 352.059 235 C 350.991 235, 349.813 235.493, 349.441 236.096 M 38.200 239.200 C 36.558 240.842, 36.690 244.498, 38.445 245.954 C 40.463 247.629, 44.015 246.887, 45.622 244.454 C 48.321 240.367, 41.711 235.689, 38.200 239.200 M 62.046 249.444 C 59.345 252.699, 63.815 256.614, 66.811 253.618 C 68.084 252.344, 68.215 251.563, 67.376 250.231 C 65.916 247.913, 63.601 247.571, 62.046 249.444 M 194 249.749 C 194 251.669, 197.053 252.526, 198.086 250.896 C 199.520 248.631, 199.150 248.010, 196.500 248.229 C 195.125 248.343, 194 249.027, 194 249.749 M 336.659 250.446 C 335.614 253.168, 337.063 255.130, 339.878 254.804 C 341.927 254.566, 342.500 253.954, 342.500 252 C 342.500 250.046, 341.927 249.434, 339.878 249.196 C 338.217 249.003, 337.037 249.461, 336.659 250.446 M 357 251 C 357 252.506, 357.522 253.046, 358.750 252.810 C 359.712 252.624, 360.500 251.810, 360.500 251 C 360.500 250.190, 359.712 249.376, 358.750 249.190 C 357.522 248.954, 357 249.494, 357 251 M 353 256.927 C 353 258.358, 353.642 259, 355.073 259 C 356.504 259, 357.043 258.461, 356.812 257.261 C 356.310 254.655, 353 254.364, 353 256.927 M 340.389 262.430 C 339.398 265.010, 340.769 267, 343.535 267 C 345.779 267, 346.090 266.625, 345.816 264.250 C 345.452 261.079, 341.425 259.729, 340.389 262.430 M 57.389 264.430 C 56.393 267.025, 57.788 269.169, 60.246 268.820 C 61.898 268.585, 62.500 267.833, 62.500 266 C 62.500 264.167, 61.898 263.415, 60.246 263.180 C 58.893 262.988, 57.750 263.488, 57.389 264.430 M 108.991 264.511 C 107.641 266.137, 108.700 266.476, 110.857 265.110 C 111.681 264.587, 111.824 264.009, 111.220 263.636 C 110.674 263.298, 109.671 263.692, 108.991 264.511 M 340.410 278.375 C 339.211 281.498, 340.424 283.500, 343.514 283.500 C 346.165 283.500, 346.500 283.164, 346.500 280.500 C 346.500 277.969, 346.069 277.450, 343.744 277.183 C 341.986 276.981, 340.779 277.412, 340.410 278.375 M 307 282 C 305.718 282.828, 305.754 282.972, 307.250 282.985 C 308.212 282.993, 309 282.550, 309 282 C 309 280.780, 308.887 280.780, 307 282 M 57.141 284.330 C 55.442 286.378, 56.836 289.166, 59.377 288.803 C 60.891 288.587, 61.500 287.786, 61.500 286.014 C 61.500 283.161, 58.934 282.170, 57.141 284.330 M 324.496 287.007 C 324.153 287.561, 324.596 288.292, 325.480 288.631 C 327.394 289.365, 328.461 288.556, 327.541 287.067 C 326.711 285.723, 325.306 285.696, 324.496 287.007 M 335.212 297.188 C 333.572 298.828, 333.688 300.496, 335.550 302.042 C 337.768 303.882, 340.974 300.767, 339.412 298.291 C 338.007 296.064, 336.684 295.716, 335.212 297.188 M 314.930 300.584 C 313.406 302.421, 314.706 305.301, 317.290 305.810 C 319.784 306.302, 321.341 302.484, 319.427 300.569 C 317.451 298.594, 316.580 298.597, 314.930 300.584 M 82.571 314.571 C 79.859 317.284, 81.358 321, 85.165 321 C 86.652 321, 89 318.329, 89 316.637 C 89 315.807, 85.913 313, 85 313 C 84.529 313, 83.436 313.707, 82.571 314.571 M 293.980 323.038 C 292.441 325.913, 293.678 328.881, 296.735 329.648 C 301.334 330.803, 304.444 324.416, 300.573 321.765 C 298.509 320.352, 295.061 321.017, 293.980 323.038 M 100 326 C 100 327.506, 100.522 328.046, 101.750 327.810 C 102.713 327.624, 103.500 326.810, 103.500 326 C 103.500 325.190, 102.713 324.376, 101.750 324.190 C 100.522 323.954, 100 324.494, 100 326 M 138.709 331.624 C 137.432 332.901, 137.966 336.773, 139.500 337.362 C 142.172 338.387, 144.128 336.915, 143.804 334.122 C 143.505 331.547, 140.339 329.995, 138.709 331.624 M 276.533 333.947 C 275.653 335.370, 276.775 337, 278.632 337 C 279.508 337, 280.010 336.297, 279.823 335.333 C 279.434 333.324, 277.437 332.484, 276.533 333.947 M 113.200 335.200 C 110.412 337.988, 112.510 343.014, 116.450 342.985 C 119.653 342.961, 121.250 341.468, 121.250 338.500 C 121.250 334.414, 116.098 332.302, 113.200 335.200 M 257.500 338 C 256.663 339.354, 257.792 341, 259.559 341 C 260.352 341, 261 340.100, 261 339 C 261 336.930, 258.587 336.240, 257.500 338 M 142.053 347.436 C 141.154 348.520, 141.140 349.394, 141.998 350.996 C 143.272 353.378, 145.766 353.326, 147.302 350.886 C 149.615 347.212, 144.843 344.075, 142.053 347.436 M 166.553 346.915 C 166.231 347.436, 166.394 348.125, 166.915 348.447 C 167.436 348.769, 168.125 348.606, 168.447 348.085 C 168.769 347.564, 168.606 346.875, 168.085 346.553 C 167.564 346.231, 166.875 346.394, 166.553 346.915 M 268.050 348.907 C 266.537 351.734, 270.113 355.965, 272.687 354.393 C 274.963 353.003, 275.532 350.346, 273.960 348.452 C 272.269 346.414, 269.260 346.646, 268.050 348.907 M 234.200 349.200 C 233.540 349.860, 233 351.345, 233 352.500 C 233 355.374, 234.867 357, 238.165 357 C 240.750 357, 243 354.737, 243 352.137 C 243 348.846, 236.667 346.733, 234.200 349.200 M 220 350.500 C 220 351.325, 220.675 352, 221.500 352 C 222.325 352, 223 351.325, 223 350.500 C 223 349.675, 222.325 349, 221.500 349 C 220.675 349, 220 349.675, 220 350.500 M 160 352.441 C 160 353.234, 160.399 354.129, 160.887 354.430 C 161.988 355.111, 164.229 352.562, 163.325 351.658 C 162.135 350.468, 160 350.971, 160 352.441 M 205.709 352.624 C 204.160 354.173, 205.039 357.878, 207.112 358.535 C 210.057 359.470, 212.881 356.624, 211.381 354.231 C 210.227 352.390, 206.889 351.444, 205.709 352.624 M 253.571 353.571 C 251.491 355.652, 251.589 357.318, 253.917 359.425 C 255.446 360.809, 256.255 360.934, 257.917 360.045 C 260.575 358.622, 260.664 354.426, 258.066 353.035 C 255.564 351.696, 255.431 351.712, 253.571 353.571 M 187.529 358.355 C 185.479 359.854, 185.798 362.843, 188.166 364.335 C 189.374 365.095, 190.268 365.022, 191.416 364.070 C 195.049 361.054, 191.325 355.579, 187.529 358.355 M 228.250 359.731 C 227.563 359.970, 227 360.981, 227 361.976 C 227 363.921, 228.725 364.976, 230.750 364.269 C 231.438 364.030, 232 363.019, 232 362.024 C 232 360.079, 230.275 359.024, 228.250 359.731" stroke="none" fill="#a7cc4d" fill-rule="evenodd"/></svg>